<?xml version="1.0" standalone="no"?>
<!DOCTYPE svg PUBLIC "-//W3C//DTD SVG 20010904//EN"
 "http://www.w3.org/TR/2001/REC-SVG-20010904/DTD/svg10.dtd">
<svg version="1.0" xmlns="http://www.w3.org/2000/svg"
 width="500.000000pt" height="500.000000pt" viewBox="0 0 500.000000 500.000000"
 preserveAspectRatio="xMidYMid meet">

<g transform="translate(0.000000,500.000000) scale(0.100000,-0.100000)"
fill="#000000" stroke="none">
<path d="M4288 4862 c-25 -31 -55 -66 -65 -77 -57 -63 -257 -288 -299 -337
-63 -74 -289 -324 -368 -408 -81 -87 -126 -145 -126 -163 0 -9 -9 -22 -21 -30
-11 -8 -40 -38 -65 -67 -34 -40 -44 -60 -44 -86 0 -30 -14 -51 -87 -137 -49
-56 -100 -113 -115 -127 -14 -14 -68 -72 -120 -130 -51 -58 -115 -127 -141
-154 -27 -27 -76 -80 -109 -118 -34 -37 -64 -68 -68 -68 -7 0 -36 65 -86 195
-15 39 -31 75 -36 81 -9 12 -58 151 -58 166 0 5 18 28 40 52 22 24 40 49 40
55 0 7 -9 34 -21 61 l-21 49 -119 -105 c-65 -58 -119 -111 -119 -117 1 -19 38
-97 47 -97 5 0 25 11 45 25 20 14 41 25 46 25 9 0 47 -87 159 -359 l34 -84
-104 -106 c-127 -130 -157 -163 -157 -176 0 -5 20 -41 45 -80 45 -69 216 -407
230 -455 4 -14 16 -36 26 -49 11 -13 19 -28 19 -33 0 -8 88 -207 96 -217 1 -2
42 35 91 82 48 46 104 98 123 113 19 16 41 36 48 46 6 9 45 40 85 69 74 54
180 154 384 362 64 64 120 117 124 117 5 0 9 -67 9 -150 l0 -150 -32 0 c-18 0
-38 -4 -44 -8 -17 -11 -79 -208 -154 -487 -249 -920 -373 -1393 -384 -1456 -6
-36 -6 -37 41 -52 27 -9 51 -13 54 -9 4 4 16 45 29 92 12 47 67 252 122 455
54 204 108 404 118 445 10 41 38 149 63 240 25 91 66 246 92 345 59 227 68
258 83 263 9 3 12 -223 13 -970 0 -535 4 -995 7 -1023 7 -47 9 -50 37 -50 62
0 60 -45 63 1068 1 554 6 1007 10 1007 16 0 31 -45 62 -175 17 -71 47 -182 65
-245 19 -63 42 -149 51 -190 9 -41 32 -133 50 -205 19 -71 48 -186 65 -255 17
-69 48 -190 70 -270 21 -80 57 -217 80 -305 61 -239 55 -225 92 -225 18 0 43
3 56 7 28 7 27 22 -19 187 -17 61 -57 215 -90 341 -33 127 -82 316 -110 420
-28 105 -54 213 -60 240 -5 28 -25 109 -46 180 -103 364 -135 500 -128 541 8
43 -38 134 -66 134 -15 0 -22 -9 -26 -30 -5 -23 -12 -30 -29 -30 -13 0 -26 7
-29 16 -10 25 -7 422 3 428 5 4 31 9 58 13 54 7 123 47 123 72 0 9 -7 34 -15
56 -17 47 -19 68 -6 60 5 -3 17 -29 27 -58 23 -72 23 -72 53 -44 14 14 51 43
82 64 32 22 72 52 90 67 46 37 127 100 214 166 40 30 125 96 190 145 64 50
146 111 181 136 35 26 96 75 136 110 40 35 75 65 77 66 2 2 -14 40 -37 85 -22
46 -54 117 -72 158 -17 41 -44 104 -60 140 -53 116 -212 484 -227 524 -14 40
-60 141 -92 206 -10 19 -37 83 -61 143 -23 59 -47 107 -54 107 -6 0 -32 -26
-58 -58z"/>
<path d="M795 2824 c-314 -39 -526 -184 -648 -445 -42 -90 -51 -119 -74 -234
-25 -126 -24 -499 1 -670 55 -374 216 -783 391 -995 194 -234 483 -363 820
-363 147 0 213 11 399 68 139 43 420 216 559 344 l38 36 -7 180 c-3 99 -6 192
-6 207 1 34 -7 35 -40 5 -179 -164 -439 -306 -668 -364 -140 -36 -388 -43
-517 -15 -123 28 -211 64 -309 127 -86 56 -214 169 -214 190 0 8 29 -1 79 -26
101 -49 184 -63 325 -56 121 6 219 32 396 104 169 69 394 231 610 440 36 35
70 63 77 63 7 0 17 -9 23 -20 15 -27 40 -25 78 8 30 26 31 29 22 67 -5 23 -39
103 -75 179 -37 76 -64 140 -61 144 9 8 8 9 76 -130 34 -71 65 -128 69 -128 3
0 28 20 56 44 l49 43 -28 69 c-43 107 -130 278 -143 282 -6 2 -30 -24 -53 -57
-22 -34 -43 -61 -45 -61 -3 0 -16 18 -31 41 l-25 41 -24 -32 c-44 -60 -50 -85
-30 -137 l18 -47 -34 -29 c-148 -127 -215 -179 -246 -192 -20 -9 -52 -27 -70
-41 -68 -52 -258 -141 -353 -165 -132 -34 -337 -34 -455 0 -211 59 -441 217
-509 348 -14 29 -15 37 -2 73 41 118 167 269 285 341 33 20 104 50 159 67 91
29 111 32 231 32 113 0 150 -4 258 -31 69 -17 129 -27 133 -22 4 4 17 67 29
138 13 72 38 208 57 302 19 95 34 181 34 192 0 14 -12 23 -47 35 -69 21 -193
44 -308 55 -116 12 -118 11 -250 -5z"/>
<path d="M2339 2431 c-93 -113 -193 -191 -243 -191 -8 0 -26 -5 -40 -12 -21
-9 -25 -16 -20 -37 17 -77 65 -203 129 -341 40 -85 78 -170 85 -187 7 -18 19
-33 26 -33 8 0 14 -8 14 -17 0 -26 63 -162 75 -163 6 0 28 35 49 79 32 65 60
100 167 211 l128 132 -15 36 c-24 58 -91 200 -194 410 l-95 193 -66 -80z"/>
</g>
</svg>
